<?xml version="1.0" encoding="utf-8"?>
<!-- Generator: Adobe Illustrator 16.0.0, SVG Export Plug-In . SVG Version: 6.00 Build 0)  -->
<!DOCTYPE svg PUBLIC "-//W3C//DTD SVG 1.1//EN" "http://www.w3.org/Graphics/SVG/1.1/DTD/svg11.dtd">
<svg version="1.1" id="Camada_1" xmlns="http://www.w3.org/2000/svg" xmlns:xlink="http://www.w3.org/1999/xlink" x="0px" y="0px"
	 width="308px" height="143px" viewBox="0 0 308 143" enable-background="new 0 0 308 143" xml:space="preserve">
<g>
	<path fill="#FFFFFF" d="M38.314,91.444c0,2.796-2.033,4.533-4.702,5.295c-2.287,0.636-6.058,0.636-8.302,0.043
		c-2.754-0.721-4.914-2.499-4.956-5.295V72.892c0.042-3.092,2.626-4.913,5.718-5.506c2.33-0.424,5.719-0.382,7.922,0.338
		c2.499,0.848,4.32,2.542,4.32,5.168h-2.118c0-1.567-1.229-2.626-2.838-3.177c-1.948-0.636-4.871-0.636-6.904-0.254
		c-2.16,0.424-3.981,1.567-3.981,3.431v18.596c0,1.652,1.482,2.753,3.389,3.262c1.99,0.508,5.167,0.508,7.158-0.043
		c1.821-0.508,3.177-1.609,3.177-3.219L38.314,91.444z"/>
	<path fill="#FFFFFF" d="M64.868,94.876v2.16h-6.142c-4.066,0-8.048-1.652-8.048-6.354c0-7.752,0-15.546,0-23.297h2.16v23.297
		c0,3.177,3.304,4.193,5.888,4.193H64.868z"/>
	<path fill="#FFFFFF" d="M76.556,72.723c0-7.582,17.875-7.582,17.875,0v18.892c0,7.709-17.875,7.709-17.875,0V72.723z
		 M92.271,91.402l0.043-18.68c0-4.999-13.64-4.999-13.64,0l0.042,18.68c0,0.551,0.043,0.932,0.127,1.102
		c1.271,3.685,12.03,3.685,13.301,0C92.229,92.334,92.271,91.953,92.271,91.402z"/>
	<path fill="#FFFFFF" d="M125.18,97.036c-0.763,0-1.482,0-2.245,0l-12.75-23.933l-1.059-2.838h-0.17l0.382,3.008v23.763h-2.118
		v-29.65c0.763,0,1.524,0,2.287,0l12.75,23.932l1.059,2.796h0.127l-0.381-3.007V67.386h2.118V97.036z"/>
	<path fill="#FFFFFF" d="M140.256,81.109h13.639v2.16h-13.639c0,1.355-0.128,8.091,0.169,8.938c0.678,1.991,3.643,2.669,5.634,2.669
		h7.836v2.16h-7.836v-0.042c-3.601,0.042-7.921-1.652-7.921-5.677V67.343c5.252,0,10.505,0,15.757,0v2.118h-13.639V81.109z"/>
	<path fill="#FFFFFF" d="M179.856,72.511c0.042-4.236-7.963-4.405-10.717-1.821c-1.778,1.694-2.16,5.422-0.466,7.412
		c1.229,1.483,3.516,2.076,5.549,2.584c4.998,1.271,8.98,3.432,8.938,9.192c-0.042,2.414-1.144,4.362-2.753,5.718
		c-2.711,2.245-7.37,2.288-10.632,1.229c-2.457-0.847-4.32-2.796-4.278-5.422l2.075,0.042c0.085,1.779,1.567,3.22,3.178,3.686
		c2.753,0.763,5.93,0.805,8.302-1.144c1.187-0.975,1.948-2.372,1.991-4.108c0.042-4.533-3.855-6.396-7.371-7.286
		c-2.541-0.636-4.955-1.397-6.438-2.965c-2.583-2.796-2.16-8.006,0.466-10.463c3.812-3.601,14.317-2.838,14.275,3.389
		L179.856,72.511z"/>
	<path fill="#FFFFFF" d="M196.965,83.312c0,4.363,0,9.361,0,13.725h-2.075V67.343h2.075v13.852h13.131V67.343h2.118v29.693h-2.118
		V83.312H196.965z"/>
	<path fill="#FFFFFF" d="M227.798,67.343v29.693h-2.117c0-9.912,0-19.781,0-29.693H227.798z"/>
	<path fill="#FFFFFF" d="M256.98,67.343v2.118c-4.575,0-9.107,0-13.682,0c0,3.939,0,7.879,0,11.817h11.563v2.161h-11.563
		c0,0.847-0.043,11.31-0.043,13.597h-2.118c0-9.912,0-19.781,0-29.693C246.433,67.343,251.686,67.343,256.98,67.343z"/>
	<path fill="#FFFFFF" d="M267.947,67.386h18.257v1.863h-8.048l-0.085,27.787h-2.16l0.085-27.787h-8.049V67.386z"/>
</g>
<g>
	<path fill="#FFFFFF" d="M31.769,112.869h-4.344v-0.344h9.065v0.344h-4.344v11.676h-0.378V112.869z"/>
	<path fill="#FFFFFF" d="M38.55,112.012h0.378v6.301c0.068-0.264,0.191-0.543,0.368-0.842c0.177-0.297,0.408-0.574,0.693-0.832
		c0.286-0.258,0.625-0.471,1.02-0.637c0.394-0.164,0.848-0.248,1.361-0.248c0.582,0,1.097,0.094,1.542,0.283
		s0.818,0.455,1.121,0.799s0.534,0.756,0.694,1.236c0.159,0.48,0.239,1.018,0.239,1.613v4.859h-0.378v-4.824
		c0-0.539-0.068-1.031-0.204-1.477c-0.137-0.447-0.342-0.828-0.615-1.143s-0.615-0.561-1.025-0.738
		c-0.409-0.178-0.882-0.266-1.417-0.266c-0.479,0-0.923,0.094-1.333,0.283c-0.409,0.189-0.769,0.451-1.075,0.789
		c-0.308,0.338-0.55,0.73-0.727,1.176c-0.177,0.447-0.265,0.928-0.265,1.443v4.756H38.55V112.012z"/>
	<path fill="#FFFFFF" d="M52.689,124.75c-0.585,0-1.139-0.105-1.661-0.316c-0.521-0.213-0.978-0.514-1.367-0.902
		c-0.391-0.389-0.7-0.861-0.93-1.416s-0.344-1.176-0.344-1.863v-0.033c0-0.631,0.103-1.221,0.309-1.77s0.492-1.021,0.858-1.416
		s0.802-0.707,1.306-0.936c0.503-0.229,1.053-0.344,1.647-0.344c0.676,0,1.263,0.135,1.76,0.404c0.498,0.268,0.91,0.621,1.236,1.055
		c0.326,0.436,0.566,0.922,0.722,1.459c0.154,0.539,0.231,1.076,0.231,1.615v0.068h-7.691c0.011,0.617,0.126,1.176,0.345,1.674
		s0.503,0.924,0.854,1.279s0.762,0.627,1.233,0.814c0.472,0.189,0.972,0.283,1.501,0.283c0.667,0,1.279-0.168,1.837-0.506
		s1.009-0.746,1.354-1.227l0.294,0.205c-0.367,0.539-0.853,0.984-1.454,1.34C54.126,124.572,53.446,124.75,52.689,124.75z
		 M56.079,120.029c-0.022-0.492-0.115-0.973-0.275-1.443c-0.161-0.469-0.392-0.887-0.69-1.252c-0.299-0.367-0.67-0.664-1.112-0.893
		c-0.443-0.23-0.946-0.344-1.51-0.344c-0.54,0-1.032,0.1-1.475,0.301c-0.442,0.199-0.828,0.475-1.156,0.824
		c-0.327,0.348-0.586,0.764-0.775,1.244c-0.19,0.48-0.297,1.002-0.319,1.562H56.079z"/>
	<path fill="#FFFFFF" d="M63.822,112.525h0.549v0.979h-0.549V112.525z M63.908,115.961h0.378v8.584h-0.378V115.961z"/>
	<path fill="#FFFFFF" d="M67.564,115.961h0.378v2.352c0.068-0.264,0.191-0.543,0.368-0.842c0.177-0.297,0.408-0.574,0.693-0.832
		c0.286-0.258,0.625-0.471,1.02-0.637c0.394-0.164,0.848-0.248,1.361-0.248c0.582,0,1.097,0.094,1.542,0.283
		s0.818,0.455,1.121,0.799s0.534,0.756,0.694,1.236c0.159,0.48,0.239,1.018,0.239,1.613v4.859h-0.378v-4.824
		c0-0.539-0.068-1.031-0.204-1.477c-0.137-0.447-0.342-0.828-0.615-1.143s-0.615-0.561-1.025-0.738
		c-0.409-0.178-0.882-0.266-1.417-0.266c-0.479,0-0.923,0.094-1.333,0.283c-0.409,0.189-0.769,0.451-1.075,0.789
		c-0.308,0.338-0.55,0.73-0.727,1.176c-0.177,0.447-0.265,0.928-0.265,1.443v4.756h-0.378V115.961z"/>
	<path fill="#FFFFFF" d="M80.63,124.699c-0.606,0-1.216-0.111-1.828-0.336c-0.612-0.223-1.159-0.533-1.64-0.936l0.223-0.291
		c0.481,0.4,1.005,0.703,1.571,0.91c0.566,0.205,1.13,0.309,1.691,0.309c0.389,0,0.749-0.045,1.081-0.137s0.618-0.225,0.858-0.395
		c0.241-0.172,0.43-0.375,0.567-0.611c0.137-0.234,0.206-0.488,0.206-0.764v-0.033c0-0.332-0.081-0.609-0.241-0.834
		c-0.16-0.223-0.375-0.412-0.644-0.566s-0.572-0.283-0.91-0.385c-0.338-0.104-0.678-0.207-1.021-0.311
		c-0.435-0.125-0.838-0.252-1.21-0.377c-0.372-0.127-0.689-0.275-0.953-0.447s-0.47-0.375-0.618-0.609s-0.223-0.523-0.223-0.867
		v-0.033c0-0.299,0.071-0.578,0.214-0.842c0.144-0.264,0.344-0.494,0.602-0.695c0.257-0.199,0.572-0.357,0.944-0.473
		c0.371-0.113,0.781-0.172,1.228-0.172c0.48,0,0.984,0.08,1.511,0.24c0.526,0.162,1.019,0.402,1.477,0.723l-0.206,0.309
		c-0.424-0.297-0.879-0.527-1.365-0.688s-0.959-0.24-1.416-0.24c-0.79,0-1.423,0.176-1.897,0.523
		c-0.476,0.35-0.713,0.781-0.713,1.297v0.035c0,0.285,0.071,0.529,0.215,0.729c0.144,0.201,0.341,0.375,0.593,0.523
		c0.251,0.15,0.54,0.281,0.867,0.395c0.326,0.115,0.678,0.225,1.056,0.326c0.423,0.115,0.824,0.238,1.201,0.369
		c0.378,0.133,0.707,0.287,0.987,0.465s0.501,0.395,0.661,0.652s0.24,0.568,0.24,0.936v0.035c0,0.332-0.077,0.637-0.231,0.918
		c-0.154,0.279-0.372,0.521-0.652,0.721c-0.28,0.201-0.609,0.355-0.987,0.463C81.488,124.645,81.076,124.699,80.63,124.699z"/>
	<path fill="#FFFFFF" d="M89.094,124.699c-0.721,0-1.271-0.203-1.647-0.609c-0.378-0.406-0.567-0.988-0.567-1.742v-6.061h-1.355
		v-0.326h1.355v-2.971h0.378v2.971h3.177v0.326h-3.177v6.025c0,0.652,0.151,1.156,0.455,1.512c0.304,0.354,0.765,0.531,1.382,0.531
		c0.458,0,0.894-0.104,1.306-0.309v0.377C89.998,124.607,89.563,124.699,89.094,124.699z"/>
	<path fill="#FFFFFF" d="M95.31,124.75c-0.424,0-0.827-0.055-1.211-0.162c-0.384-0.109-0.724-0.271-1.021-0.49
		c-0.298-0.217-0.535-0.486-0.713-0.807c-0.177-0.32-0.266-0.691-0.266-1.115v-0.035c0-0.445,0.1-0.842,0.3-1.184
		c0.199-0.344,0.471-0.631,0.813-0.859c0.342-0.229,0.745-0.4,1.207-0.516c0.463-0.113,0.962-0.172,1.499-0.172
		c0.605,0,1.185,0.049,1.738,0.146s1.048,0.227,1.481,0.387v-0.721c0-1.043-0.289-1.812-0.867-2.311s-1.37-0.746-2.378-0.746
		c-0.538,0-1.036,0.066-1.493,0.197c-0.458,0.133-0.91,0.307-1.356,0.523l-0.138-0.309c0.48-0.229,0.962-0.412,1.442-0.549
		c0.48-0.139,1.001-0.207,1.562-0.207c1.202,0,2.117,0.314,2.747,0.945c0.263,0.264,0.472,0.6,0.627,1.012
		c0.154,0.412,0.231,0.889,0.231,1.426v5.34h-0.378l0.018-2.027c-0.092,0.252-0.24,0.51-0.446,0.773s-0.47,0.504-0.79,0.721
		c-0.32,0.219-0.698,0.395-1.134,0.533C96.351,124.682,95.858,124.75,95.31,124.75z M95.319,124.406c0.57,0,1.09-0.086,1.558-0.256
		c0.469-0.172,0.871-0.398,1.208-0.68c0.336-0.279,0.596-0.6,0.778-0.961s0.274-0.73,0.274-1.107v-1.1
		c-0.456-0.17-0.941-0.305-1.455-0.402c-0.515-0.098-1.097-0.146-1.747-0.146c-0.479,0-0.931,0.049-1.353,0.146
		c-0.423,0.098-0.791,0.246-1.105,0.445c-0.313,0.201-0.559,0.451-0.736,0.748c-0.177,0.297-0.265,0.641-0.265,1.029v0.035
		c0,0.377,0.077,0.707,0.23,0.986c0.154,0.281,0.363,0.516,0.626,0.705c0.262,0.188,0.564,0.328,0.907,0.42
		C94.582,124.361,94.942,124.406,95.319,124.406z"/>
	<path fill="#FFFFFF" d="M102.537,115.961h0.378v2.352c0.068-0.264,0.191-0.543,0.368-0.842c0.177-0.297,0.408-0.574,0.693-0.832
		c0.286-0.258,0.625-0.471,1.02-0.637c0.394-0.164,0.848-0.248,1.361-0.248c0.582,0,1.097,0.094,1.542,0.283
		s0.818,0.455,1.121,0.799s0.534,0.756,0.694,1.236c0.159,0.48,0.239,1.018,0.239,1.613v4.859h-0.378v-4.824
		c0-0.539-0.068-1.031-0.204-1.477c-0.137-0.447-0.342-0.828-0.615-1.143s-0.615-0.561-1.025-0.738
		c-0.409-0.178-0.882-0.266-1.417-0.266c-0.479,0-0.923,0.094-1.333,0.283c-0.409,0.189-0.769,0.451-1.075,0.789
		c-0.308,0.338-0.55,0.73-0.727,1.176c-0.177,0.447-0.265,0.928-0.265,1.443v4.756h-0.378V115.961z"/>
	<path fill="#FFFFFF" d="M115.654,124.699c-0.721,0-1.271-0.203-1.648-0.609s-0.566-0.988-0.566-1.742v-6.061h-1.356v-0.326h1.356
		v-2.971h0.378v2.971h3.176v0.326h-3.176v6.025c0,0.652,0.151,1.156,0.455,1.512c0.303,0.354,0.764,0.531,1.382,0.531
		c0.458,0,0.893-0.104,1.305-0.309v0.377C116.559,124.607,116.123,124.699,115.654,124.699z"/>
	<path fill="#FFFFFF" d="M126.813,124.699c-0.606,0-1.216-0.111-1.828-0.336c-0.612-0.223-1.159-0.533-1.64-0.936l0.223-0.291
		c0.481,0.4,1.005,0.703,1.571,0.91c0.566,0.205,1.13,0.309,1.691,0.309c0.389,0,0.749-0.045,1.081-0.137s0.618-0.225,0.858-0.395
		c0.241-0.172,0.43-0.375,0.567-0.611c0.137-0.234,0.206-0.488,0.206-0.764v-0.033c0-0.332-0.081-0.609-0.241-0.834
		c-0.16-0.223-0.375-0.412-0.644-0.566s-0.572-0.283-0.91-0.385c-0.338-0.104-0.678-0.207-1.021-0.311
		c-0.435-0.125-0.838-0.252-1.21-0.377c-0.372-0.127-0.689-0.275-0.953-0.447s-0.47-0.375-0.618-0.609s-0.223-0.523-0.223-0.867
		v-0.033c0-0.299,0.071-0.578,0.214-0.842c0.144-0.264,0.344-0.494,0.602-0.695c0.257-0.199,0.572-0.357,0.944-0.473
		c0.371-0.113,0.781-0.172,1.228-0.172c0.48,0,0.984,0.08,1.511,0.24c0.526,0.162,1.019,0.402,1.477,0.723l-0.206,0.309
		c-0.424-0.297-0.879-0.527-1.365-0.688s-0.959-0.24-1.416-0.24c-0.79,0-1.423,0.176-1.897,0.523
		c-0.476,0.35-0.713,0.781-0.713,1.297v0.035c0,0.285,0.071,0.529,0.215,0.729c0.144,0.201,0.341,0.375,0.593,0.523
		c0.251,0.15,0.54,0.281,0.867,0.395c0.326,0.115,0.678,0.225,1.056,0.326c0.423,0.115,0.824,0.238,1.201,0.369
		c0.378,0.133,0.707,0.287,0.987,0.465s0.501,0.395,0.661,0.652s0.24,0.568,0.24,0.936v0.035c0,0.332-0.077,0.637-0.231,0.918
		c-0.154,0.279-0.372,0.521-0.652,0.721c-0.28,0.201-0.609,0.355-0.987,0.463C127.672,124.645,127.26,124.699,126.813,124.699z"/>
	<path fill="#FFFFFF" d="M132.616,112.525h0.55v0.979h-0.55V112.525z M132.702,115.961h0.378v8.584h-0.378V115.961z"/>
	<path fill="#FFFFFF" d="M140.076,124.75c-0.617,0-1.188-0.117-1.714-0.352s-0.979-0.553-1.362-0.953
		c-0.382-0.4-0.68-0.875-0.891-1.424c-0.211-0.551-0.316-1.135-0.316-1.752v-0.035c0-0.617,0.105-1.201,0.316-1.75
		c0.211-0.551,0.509-1.025,0.891-1.426c0.383-0.4,0.837-0.719,1.362-0.953s1.097-0.352,1.714-0.352c0.49,0,0.95,0.072,1.379,0.215
		c0.428,0.143,0.813,0.344,1.156,0.602c0.343,0.256,0.634,0.561,0.874,0.908c0.24,0.35,0.423,0.73,0.548,1.143v-6.609h0.378v12.533
		h-0.378v-2.662c-0.125,0.412-0.308,0.793-0.548,1.143s-0.531,0.652-0.874,0.91s-0.729,0.457-1.156,0.6
		C141.026,124.68,140.566,124.75,140.076,124.75z M140.094,124.406c0.582,0,1.116-0.111,1.602-0.334s0.902-0.523,1.251-0.9
		c0.348-0.379,0.619-0.816,0.813-1.314s0.291-1.027,0.291-1.588v-0.035c0-0.549-0.097-1.074-0.291-1.578s-0.469-0.945-0.822-1.322
		c-0.354-0.379-0.771-0.678-1.251-0.902c-0.479-0.223-1.011-0.334-1.593-0.334c-0.583,0-1.117,0.105-1.603,0.316
		c-0.485,0.213-0.899,0.504-1.241,0.877c-0.344,0.371-0.609,0.809-0.797,1.312c-0.188,0.504-0.283,1.043-0.283,1.615v0.033
		c0,0.572,0.095,1.111,0.283,1.613c0.188,0.504,0.453,0.945,0.797,1.322c0.342,0.379,0.756,0.676,1.241,0.893
		C138.977,124.299,139.511,124.406,140.094,124.406z"/>
	<path fill="#FFFFFF" d="M151.307,124.75c-0.586,0-1.14-0.105-1.662-0.316c-0.521-0.213-0.978-0.514-1.367-0.902
		c-0.391-0.389-0.7-0.861-0.93-1.416s-0.344-1.176-0.344-1.863v-0.033c0-0.631,0.103-1.221,0.309-1.77s0.492-1.021,0.858-1.416
		s0.802-0.707,1.306-0.936c0.503-0.229,1.053-0.344,1.648-0.344c0.676,0,1.262,0.135,1.76,0.404c0.498,0.268,0.91,0.621,1.236,1.055
		c0.326,0.436,0.566,0.922,0.721,1.459c0.154,0.539,0.232,1.076,0.232,1.615v0.068h-7.692c0.011,0.617,0.126,1.176,0.345,1.674
		s0.503,0.924,0.854,1.279s0.762,0.627,1.233,0.814c0.472,0.189,0.972,0.283,1.501,0.283c0.668,0,1.279-0.168,1.838-0.506
		c0.557-0.338,1.008-0.746,1.354-1.227l0.293,0.205c-0.367,0.539-0.852,0.984-1.453,1.34
		C152.742,124.572,152.062,124.75,151.307,124.75z M154.695,120.029c-0.021-0.492-0.115-0.973-0.275-1.443
		c-0.16-0.469-0.391-0.887-0.689-1.252c-0.299-0.367-0.67-0.664-1.113-0.893c-0.443-0.23-0.945-0.344-1.51-0.344
		c-0.539,0-1.031,0.1-1.475,0.301c-0.442,0.199-0.828,0.475-1.156,0.824c-0.327,0.348-0.586,0.764-0.775,1.244
		c-0.19,0.48-0.297,1.002-0.319,1.562H154.695z"/>
	<path fill="#FFFFFF" d="M166.268,124.75c-0.676,0-1.285-0.119-1.828-0.359s-1.012-0.564-1.408-0.971
		c-0.395-0.406-0.697-0.879-0.91-1.416c-0.211-0.539-0.316-1.111-0.316-1.717v-0.035c0-0.596,0.105-1.164,0.316-1.709
		c0.213-0.543,0.514-1.021,0.902-1.434s0.857-0.74,1.408-0.986c0.549-0.246,1.16-0.369,1.836-0.369c0.664,0,1.271,0.121,1.82,0.361
		s1.021,0.562,1.416,0.969c0.396,0.406,0.699,0.883,0.91,1.426c0.213,0.543,0.318,1.113,0.318,1.709v0.033
		c0,0.607-0.105,1.182-0.318,1.727c-0.211,0.543-0.512,1.021-0.9,1.434c-0.391,0.412-0.859,0.738-1.408,0.979
		S166.943,124.75,166.268,124.75z M166.285,124.406c0.607,0,1.158-0.107,1.656-0.326c0.498-0.217,0.928-0.514,1.289-0.893
		c0.359-0.377,0.637-0.818,0.832-1.322c0.195-0.502,0.291-1.035,0.291-1.596v-0.035c0-0.561-0.1-1.092-0.299-1.596
		c-0.201-0.504-0.484-0.945-0.85-1.322c-0.367-0.377-0.803-0.676-1.307-0.893s-1.053-0.326-1.646-0.326
		c-0.607,0-1.16,0.109-1.658,0.326s-0.926,0.516-1.287,0.893s-0.639,0.818-0.832,1.322c-0.195,0.504-0.293,1.035-0.293,1.596v0.035
		c0,0.561,0.1,1.094,0.301,1.596c0.199,0.504,0.484,0.945,0.85,1.322c0.367,0.379,0.799,0.676,1.297,0.893
		C165.127,124.299,165.678,124.406,166.285,124.406z"/>
	<path fill="#FFFFFF" d="M173.908,116.287h-1.357v-0.326h1.357v-1.236c0-0.492,0.062-0.92,0.189-1.279
		c0.125-0.361,0.303-0.656,0.531-0.885c0.4-0.4,0.945-0.602,1.631-0.602c0.264,0,0.486,0.021,0.67,0.061
		c0.184,0.041,0.361,0.1,0.533,0.18v0.361c-0.344-0.172-0.744-0.258-1.203-0.258c-0.617,0-1.102,0.199-1.451,0.596
		c-0.348,0.396-0.523,1.025-0.523,1.889v1.174h3.143v0.326h-3.143v8.258h-0.377V116.287z"/>
	<path fill="#FFFFFF" d="M186.373,124.699c-0.721,0-1.27-0.203-1.648-0.609c-0.377-0.406-0.566-0.988-0.566-1.742v-6.061h-1.355
		v-0.326h1.355v-2.971h0.379v2.971h3.176v0.326h-3.176v6.025c0,0.652,0.15,1.156,0.453,1.512c0.305,0.354,0.766,0.531,1.383,0.531
		c0.457,0,0.893-0.104,1.305-0.309v0.377C187.277,124.607,186.842,124.699,186.373,124.699z"/>
	<path fill="#FFFFFF" d="M190.098,112.012h0.379v6.301c0.068-0.264,0.189-0.543,0.367-0.842c0.178-0.297,0.408-0.574,0.693-0.832
		s0.625-0.471,1.02-0.637c0.395-0.164,0.848-0.248,1.361-0.248c0.582,0,1.098,0.094,1.543,0.283s0.818,0.455,1.121,0.799
		s0.533,0.756,0.693,1.236s0.24,1.018,0.24,1.613v4.859h-0.379v-4.824c0-0.539-0.068-1.031-0.205-1.477
		c-0.137-0.447-0.342-0.828-0.613-1.143c-0.273-0.314-0.615-0.561-1.025-0.738s-0.883-0.266-1.418-0.266
		c-0.479,0-0.922,0.094-1.332,0.283s-0.77,0.451-1.076,0.789c-0.309,0.338-0.549,0.73-0.727,1.176
		c-0.176,0.447-0.264,0.928-0.264,1.443v4.756h-0.379V112.012z"/>
	<path fill="#FFFFFF" d="M204.238,124.75c-0.586,0-1.139-0.105-1.662-0.316c-0.521-0.213-0.977-0.514-1.367-0.902
		s-0.699-0.861-0.93-1.416c-0.229-0.555-0.344-1.176-0.344-1.863v-0.033c0-0.631,0.104-1.221,0.309-1.77
		c0.207-0.549,0.492-1.021,0.859-1.416c0.365-0.395,0.801-0.707,1.305-0.936s1.053-0.344,1.648-0.344
		c0.676,0,1.262,0.135,1.76,0.404c0.498,0.268,0.91,0.621,1.236,1.055c0.326,0.436,0.566,0.922,0.721,1.459
		c0.154,0.539,0.232,1.076,0.232,1.615v0.068h-7.693c0.012,0.617,0.127,1.176,0.346,1.674s0.504,0.924,0.854,1.279
		c0.352,0.355,0.762,0.627,1.234,0.814c0.471,0.189,0.971,0.283,1.5,0.283c0.668,0,1.279-0.168,1.838-0.506
		c0.557-0.338,1.008-0.746,1.354-1.227l0.293,0.205c-0.367,0.539-0.852,0.984-1.453,1.34
		C205.674,124.572,204.994,124.75,204.238,124.75z M207.627,120.029c-0.023-0.492-0.115-0.973-0.275-1.443
		c-0.162-0.469-0.391-0.887-0.689-1.252c-0.301-0.367-0.67-0.664-1.113-0.893c-0.443-0.23-0.945-0.344-1.51-0.344
		c-0.541,0-1.031,0.1-1.475,0.301c-0.443,0.199-0.828,0.475-1.156,0.824c-0.328,0.348-0.586,0.764-0.775,1.244
		s-0.297,1.002-0.32,1.562H207.627z"/>
	<path fill="#FFFFFF" d="M220.178,112.439h0.326l5.785,12.105h-0.412l-1.717-3.605h-7.656l-1.717,3.605h-0.396L220.178,112.439z
		 M223.988,120.596l-3.656-7.658l-3.656,7.658H223.988z"/>
	<path fill="#FFFFFF" d="M228.625,112.012h0.377v12.533h-0.377V112.012z"/>
	<path fill="#FFFFFF" d="M234.961,124.699c-0.723,0-1.271-0.203-1.648-0.609c-0.379-0.406-0.566-0.988-0.566-1.742v-6.061h-1.357
		v-0.326h1.357v-2.971h0.377v2.971h3.176v0.326h-3.176v6.025c0,0.652,0.152,1.156,0.455,1.512c0.303,0.354,0.764,0.531,1.383,0.531
		c0.457,0,0.893-0.104,1.305-0.309v0.377C235.863,124.607,235.43,124.699,234.961,124.699z"/>
	<path fill="#FFFFFF" d="M242.463,124.75c-0.619,0-1.193-0.119-1.727-0.359c-0.531-0.24-0.996-0.564-1.391-0.971
		s-0.703-0.881-0.926-1.426c-0.225-0.543-0.336-1.117-0.336-1.725v-0.035c0-0.605,0.111-1.182,0.336-1.725
		c0.223-0.543,0.531-1.02,0.926-1.426s0.861-0.729,1.4-0.969c0.537-0.24,1.115-0.361,1.732-0.361c0.791,0,1.451,0.152,1.984,0.455
		c0.531,0.303,1.016,0.684,1.451,1.143l-0.258,0.24c-0.391-0.412-0.84-0.766-1.348-1.057c-0.51-0.291-1.125-0.438-1.846-0.438
		c-0.572,0-1.102,0.109-1.588,0.326c-0.488,0.217-0.91,0.516-1.271,0.893s-0.641,0.814-0.842,1.312
		c-0.199,0.498-0.301,1.027-0.301,1.59v0.033c0,0.561,0.104,1.094,0.311,1.598c0.205,0.504,0.488,0.943,0.85,1.322
		c0.359,0.377,0.787,0.678,1.279,0.9s1.018,0.334,1.578,0.334c0.732,0,1.359-0.156,1.881-0.471s0.971-0.689,1.348-1.125l0.258,0.24
		c-0.4,0.469-0.885,0.869-1.451,1.201S243.264,124.75,242.463,124.75z"/>
	<path fill="#FFFFFF" d="M252.162,124.75c-0.676,0-1.285-0.119-1.828-0.359s-1.012-0.564-1.408-0.971
		c-0.395-0.406-0.697-0.879-0.91-1.416c-0.211-0.539-0.316-1.111-0.316-1.717v-0.035c0-0.596,0.105-1.164,0.316-1.709
		c0.213-0.543,0.514-1.021,0.902-1.434s0.857-0.74,1.408-0.986c0.549-0.246,1.16-0.369,1.836-0.369c0.664,0,1.271,0.121,1.82,0.361
		s1.021,0.562,1.416,0.969c0.396,0.406,0.699,0.883,0.91,1.426c0.213,0.543,0.318,1.113,0.318,1.709v0.033
		c0,0.607-0.105,1.182-0.318,1.727c-0.211,0.543-0.512,1.021-0.9,1.434c-0.391,0.412-0.859,0.738-1.408,0.979
		S252.838,124.75,252.162,124.75z M252.18,124.406c0.607,0,1.158-0.107,1.656-0.326c0.498-0.217,0.928-0.514,1.289-0.893
		c0.359-0.377,0.637-0.818,0.832-1.322c0.195-0.502,0.291-1.035,0.291-1.596v-0.035c0-0.561-0.1-1.092-0.299-1.596
		c-0.201-0.504-0.484-0.945-0.85-1.322c-0.367-0.377-0.803-0.676-1.307-0.893s-1.053-0.326-1.646-0.326
		c-0.607,0-1.16,0.109-1.658,0.326s-0.926,0.516-1.287,0.893s-0.639,0.818-0.832,1.322c-0.195,0.504-0.293,1.035-0.293,1.596v0.035
		c0,0.561,0.1,1.094,0.301,1.596c0.199,0.504,0.484,0.945,0.85,1.322c0.367,0.379,0.799,0.676,1.297,0.893
		C251.021,124.299,251.572,124.406,252.18,124.406z"/>
	<path fill="#FFFFFF" d="M259.219,112.525h0.549v0.979h-0.549V112.525z M259.305,115.961h0.377v8.584h-0.377V115.961z"/>
	<path fill="#FFFFFF" d="M262.961,115.961h0.379v2.352c0.068-0.264,0.189-0.543,0.367-0.842c0.178-0.297,0.408-0.574,0.693-0.832
		s0.625-0.471,1.02-0.637c0.395-0.164,0.848-0.248,1.361-0.248c0.582,0,1.098,0.094,1.543,0.283s0.818,0.455,1.121,0.799
		s0.533,0.756,0.693,1.236s0.24,1.018,0.24,1.613v4.859H270v-4.824c0-0.539-0.068-1.031-0.205-1.477
		c-0.137-0.447-0.342-0.828-0.613-1.143c-0.273-0.314-0.615-0.561-1.025-0.738s-0.883-0.266-1.418-0.266
		c-0.479,0-0.922,0.094-1.332,0.283s-0.77,0.451-1.076,0.789c-0.309,0.338-0.549,0.73-0.727,1.176
		c-0.176,0.447-0.264,0.928-0.264,1.443v4.756h-0.379V115.961z"/>
	<path fill="#FFFFFF" d="M276.027,124.699c-0.607,0-1.217-0.111-1.828-0.336c-0.613-0.223-1.16-0.533-1.641-0.936l0.223-0.291
		c0.48,0.4,1.006,0.703,1.572,0.91c0.566,0.205,1.129,0.309,1.691,0.309c0.389,0,0.748-0.045,1.08-0.137s0.619-0.225,0.859-0.395
		c0.24-0.172,0.43-0.375,0.566-0.611c0.137-0.234,0.205-0.488,0.205-0.764v-0.033c0-0.332-0.08-0.609-0.24-0.834
		c-0.16-0.223-0.375-0.412-0.643-0.566c-0.27-0.154-0.572-0.283-0.91-0.385c-0.338-0.104-0.678-0.207-1.021-0.311
		c-0.436-0.125-0.84-0.252-1.211-0.377c-0.371-0.127-0.689-0.275-0.953-0.447s-0.469-0.375-0.617-0.609
		c-0.15-0.234-0.225-0.523-0.225-0.867v-0.033c0-0.299,0.072-0.578,0.215-0.842c0.145-0.264,0.344-0.494,0.602-0.695
		c0.258-0.199,0.572-0.357,0.943-0.473c0.373-0.113,0.781-0.172,1.229-0.172c0.48,0,0.984,0.08,1.512,0.24
		c0.525,0.162,1.018,0.402,1.477,0.723l-0.207,0.309c-0.424-0.297-0.879-0.527-1.365-0.688s-0.959-0.24-1.416-0.24
		c-0.789,0-1.422,0.176-1.896,0.523c-0.477,0.35-0.713,0.781-0.713,1.297v0.035c0,0.285,0.07,0.529,0.215,0.729
		c0.143,0.201,0.34,0.375,0.592,0.523c0.252,0.15,0.541,0.281,0.867,0.395c0.326,0.115,0.678,0.225,1.057,0.326
		c0.422,0.115,0.822,0.238,1.201,0.369c0.377,0.133,0.707,0.287,0.986,0.465c0.281,0.178,0.502,0.395,0.662,0.652
		s0.24,0.568,0.24,0.936v0.035c0,0.332-0.078,0.637-0.232,0.918c-0.154,0.279-0.371,0.521-0.652,0.721
		c-0.281,0.201-0.609,0.355-0.986,0.463C276.885,124.645,276.473,124.699,276.027,124.699z"/>
</g>
<g>
	<g>
		<path fill="#F5B543" d="M144.622,17.635l-12.264,5.07l-5.086,12.258l5.07,12.264l12.252,5.086l12.269-5.068l5.086-12.262
			l-5.074-12.262L144.622,17.635z M155.5,45.881l-10.9,4.502l-10.895-4.52l-4.506-10.9l4.52-10.895l10.902-4.506l10.89,4.521
			l4.508,10.898L155.5,45.881z"/>
	</g>
	<g>
		<path fill="#F5B543" d="M144.61,27.221c-4.277,0-7.756,3.477-7.756,7.756c0,4.271,3.479,7.75,7.756,7.75
			c4.273,0,7.753-3.479,7.753-7.75C152.363,30.697,148.883,27.221,144.61,27.221z M144.61,40.947c-3.291,0-5.973-2.68-5.973-5.971
			c0-3.297,2.682-5.977,5.973-5.977c3.293,0,5.974,2.68,5.974,5.977C150.584,38.268,147.903,40.947,144.61,40.947z"/>
	</g>
	<g>
		<path fill="#F5B543" d="M161.959,17.635l-12.263,5.07l-5.086,12.258l5.068,12.264l12.257,5.086l12.262-5.068l5.09-12.262
			l-5.072-12.262L161.959,17.635z M172.836,45.881l-10.9,4.502l-10.895-4.52l-4.505-10.9l4.523-10.895l10.9-4.506l10.893,4.521
			l4.508,10.898L172.836,45.881z"/>
	</g>
	<g>
		<path fill="#F5B543" d="M161.949,27.221c-4.275,0-7.754,3.477-7.754,7.756c0,4.271,3.479,7.75,7.754,7.75
			c4.273,0,7.754-3.479,7.754-7.75C169.703,30.697,166.223,27.221,161.949,27.221z M161.949,40.947c-3.295,0-5.973-2.68-5.973-5.971
			c0-3.297,2.678-5.977,5.973-5.977c3.289,0,5.973,2.68,5.973,5.977C167.922,38.268,165.238,40.947,161.949,40.947z"/>
	</g>
</g>
</svg>
